<svg>
<symbol id="shield" viewBox="0 0 512 512"  stroke="currentColor" fill="currentColor" 
 xmlns="http://www.w3.org/2000/svg">
<path d="M466.5 83.7l-192-80a48.15 48.15 0 0 0-36.9 0l-192 80C27.7 91.1 16 108.6 16 128c0 198.5 114.5 335.7 221.5 380.3 11.8 4.9 25.1 4.9 36.9 0C360.1 472.6 496 349.3 496 128c0-19.4-11.7-36.9-29.5-44.3zM256.1 446.3l-.1-381 175.9 73.3c-3.3 151.4-82.1 261.1-175.8 307.7z"></path>
</symbol>

<symbol id="horseKnight" stroke="currentColor" fill="currentColor"  viewBox="0 0 512 512" 
xmlns="http://www.w3.org/2000/svg">
<path d="M222.776 64.76a16.1 16.1 0 0 1 4.22.56c8.45 2.29 13.88 11.15 14.57 22l-25.78 6 21.89 13.86c-4.93 10.47-13.67 17.3-22.34 17.3a16.1 16.1 0 0 1-4.22-.56c-11.68-3.16-17.59-18.85-13.2-35 3.87-14.26 14.43-24.16 24.86-24.16zm-20.29-9.44a38.78 38.78 0 0 1 9.18-4.65c-5.47-4.23-12.06-8.82-15.9-9.73-27.8-6.55-28.34 34.41-49.08 15.35 16.77 30.56 35.36-12.18 55.8-.96zm54 115.56c-6.437-14.24-23.208-20.557-37.44-14.1l23.34 51.55c14.246-6.438 20.57-23.21 14.12-37.45zm-69.52 35l-21.72-6.66-60.94 31 7.16 14.07zm29.88-65.41h-1.53c-2.836.002-5.66-.37-8.4-1.11a32.64 32.64 0 0 1-14.27-8.23l-19.49 53.78 47.69 14.63-10.68-23.59-14-2.64 9.69-7-8.01-17.51s17.52-7.83 19-8.33zm-132.65 143c-64.72-46.18 42-97.32-47.05-105.87 59.27 26.57-49.43 44.81-10.25 97.71 7.49 10.11 34.76 24.95 49.64 32.56a78.51 78.51 0 0 1 7.7-24.38zm132.79-63.26l2.31-4.42-10.29-3.15-49.91 25.39 68.65 26.47-48.34 40.09 40.63 26.55-6.5-23.93 45.41-49zm13.73-82c4.898.003 9.76.82 14.39 2.42l41.79-21.22a184.67 184.67 0 0 0-35.66-3.51c-5.68 11-14.35 19-24.17 22.51 1.21-.09 2.43-.16 3.65-.16zm182 124.37h-4.15c-5.37 0-11.36-.21-17.77-.63l12.66 18 25-7.33s-1.13-4.55-2.74-11.23a82.78 82.78 0 0 1-13.04 1.23zm-138.97-46.37c13.84-22.89 46.76-66.73 96-66.73 16.79 0 35.49 5.1 56 17.86l-11 19.83.21 21.93c-.43 3.25 3.4 21 7.08 36.9-6.65 1.15-23 1-43.18-1l-5.68-8.1c-16.16-9.55-28.75-15.76-28.75-15.76s.91 7.77 1.22 19.23c-23.06-4.18-46.85-10.67-64.84-20.13a81.992 81.992 0 0 1-7.06-4.03zm120.1-18.38c0 4.678 5.655 7.02 8.963 3.712 3.306-3.307.964-8.962-3.714-8.962a5.25 5.25 0 0 0-5.25 5.25zm-132.64-47.42a44.15 44.15 0 0 1 9.43 12.91l223.21-123.4v-9.4zm76.17 154.12c5.64-14.72 7.68-32.58 8.2-48a325.89 325.89 0 0 1-49-12.25 151.31 151.31 0 0 1-30.12-13.81l13.78 96.66-129 17.14-10.39-87.05c-4.26 1.77-8.45 3.64-12.54 5.64-58.81 28.68-29.46 96.18-29.46 96.18l-25 49.21 30.11 54.35v18.81h33.9l-15.74-22.83-14.48-52.57 48.87-46.4c27.89 1.26 102.44-11.49 134.52-17l83 4.55 22.88 29.29-16.85 12.55 29.55 13.9 9.37-18.45-19.23-49.28zm-51.22-131.12l-11.31 5.72a44.08 44.08 0 0 1-.07 7.38c3.46-4.32 7.23-8.75 11.38-13.1zm31.69 231.92l-5-45.44-20.89-1.14c-6.2 1.06-13.11 2.22-20.44 3.43l21.46 47.74 17.68 54.56-.63 17h31.67l-9.65-17.83zm-140.38 19.45l36.79-53.82c-21.33 2.95-51.31 5.07-51.47 5.07l2.93 7.61-19.1 41.87 47 44.07v11.75h28.65l-11.35-12.92z"></path>
</symbol>

<symbol id="boots" stroke="currentColor" fill="currentColor" stroke-width="0" viewBox="0 0 512 512" 
xmlns="http://www.w3.org/2000/svg">
<path d="M334.5 85.22c-31.403.523-69.44 13.372-100.563 42.81l17.594 215.407-6.468 77.657h58.125l15.282-37.72 21.124 37.72h151.53c7.896-58.587-44.23-130.167-74.53-130.375l-16.53 1.124c-36.103 7.265-49.647 27.03-66.314 49.78l-4.28 5.845-6.72-2.69-13.03-5.25-14.283 36.595-17.406-6.78 14.376-36.783-11.906-4.78-8.563-3.438 3.313-8.594c7.98-20.727 20.735-40.35 38.906-54.156 14.907-11.326 33.593-18.483 55.156-18.688 1.438-.013 2.88.014 4.344.063 1.917.063 3.856.167 5.813.343l2.5-18.157c-26.083-16.097-67.526-14.873-103.72-.72l-6.78-17.405c20.11-7.864 41.785-12.5 62.655-12.56 17.98-.054 35.357 3.307 50.563 10.874l5.593-40.656c-31.286-27.418-77.42-24.612-119.374-.594l-9.28-16.22c23.566-13.49 49.485-21.265 74.312-21.31 20.46-.04 40.183 5.176 57.28 16.78l2.188-15.844c.354-1.526.61-3.013.78-4.47.002-.02 0-.04.002-.06.357-10.548-4.066-18.356-12.938-25-9.483-7.103-24.383-11.937-42.03-12.657-2.207-.09-4.44-.132-6.72-.094zm-194.406 77.31c-.838.01-1.678.03-2.5.064-13.162.537-24.16 4.175-30.938 9.25-6.776 5.075-9.702 10.64-8.937 18.844l-.595.062c.132 1.234.324 2.514.625 3.813l2.313 16.718c10.807-7.494 23.1-11.163 35.53-11.093 17.786.102 35.61 7.284 51.782 19.25l-11.094 15c-13.73-10.16-28.064-15.49-40.81-15.562-11.988-.068-22.776 4.042-32.407 14.344l4.406 31.843c8.974-4.182 18.787-6.078 28.843-6.063 14.792.022 30.092 4.157 44 11.188l-8.438 16.687c-21.797-11.02-45.487-12.505-61.688-2l2.032 14.72c.837-.03 1.677-.058 2.5-.064 14.633-.1 27.16 4.06 37.343 11.25 14.48 10.227 24.226 25.514 32.625 41.595l4.28 8.25-8.218 4.344-8.47 4.467L186 394.875l-16.438 8.875-13.812-25.594-9.156 4.844-6.344 3.344-4.875-5.25c-16.32-17.62-29.136-32.608-60.406-35.188l-9-.75c-32.087 15.312-47.556 38.284-42.44 76.25h190.44l-5.095-59.687-.03-.064 13.593-162.625c-24.97-26.094-56.98-36.796-82.344-36.5zm229.344 99.032c-17.593.075-31.926 5.756-43.97 14.907-12.36 9.39-22.03 22.778-29 37.592l26.657 10.72c14.056-18.898 30.816-38.795 61.813-48.344l-8.032-14.47c-1.3-.105-2.638-.295-3.906-.343-1.202-.045-2.39-.067-3.563-.063zM116.594 318c-4.288-.028-9.038.543-14.28 1.625l-9 10.656c23.388 6.11 38.254 19.727 50.75 32.94l10.655-5.626 8.843-4.688c-6.628-11.382-13.846-20.917-22.282-26.875-6.494-4.586-13.685-7.535-22.874-7.967-.593-.028-1.2-.06-1.812-.063z"></path>
</symbol>

<symbol id="bowl" stroke="currentColor" fill="currentColor" stroke-width="0" viewBox="0 0 512 512" 
xmlns="http://www.w3.org/2000/svg">
<path d="M150.902 268.233h-42.1a23.347 23.347 0 0 1 42.1 0zm67.359-13.292a114.847 114.847 0 0 1 1.203-16.31 23.335 23.335 0 0 0-18.68 29.602h18.295a113.38 113.38 0 0 1-.77-13.292zm-94.532-86.027c-15.637-15.637-36.638-32.164-55.162-32.164h-1.54l.975 19.246c8.913-.433 23.287 8.3 39.489 24.056q1.528 1.48 2.995 2.972a42.58 42.58 0 0 1 8.083-.95 42.34 42.34 0 0 1 5.208-13.172zm24.37-18.933a68.706 68.706 0 0 0 6.928-9.743 71.172 71.172 0 0 0 7.11-16.55 70.174 70.174 0 0 0 2.706-17.695 67.72 67.72 0 0 0-1.672-16.575 69.043 69.043 0 0 0-2.01-7 63.499 63.499 0 0 0-2.236-5.594 53.963 53.963 0 0 0-1.889-3.728c-.228-.433-.469-.782-.601-1.01l-.217-.35-.36.18c-.241.121-.614.302-1.035.542a52.092 52.092 0 0 0-3.609 2.177 52.07 52.07 0 0 0-4.811 3.609 69.031 69.031 0 0 0-5.377 4.907 67.72 67.72 0 0 0-10.104 13.232 70.174 70.174 0 0 0-6.964 16.49 71.16 71.16 0 0 0-2.719 17.779 68.562 68.562 0 0 0 1.672 16.575 66.337 66.337 0 0 0 4.234 12.546c.47 1.058.927 1.96 1.336 2.718a42.713 42.713 0 0 1 19.666-12.522zm342.413-43.903c-.228-.133-.59-.35-1.022-.578a43.443 43.443 0 0 0-3.777-1.804c-1.6-.674-3.5-1.42-5.641-2.105a69.031 69.031 0 0 0-7.049-1.84 67.72 67.72 0 0 0-16.611-1.263 70.174 70.174 0 0 0-17.634 3.127 71.172 71.172 0 0 0-16.31 7.41 68.562 68.562 0 0 0-13.003 10.428l-.542.578a69.633 69.633 0 0 1 12.618 22.168 68.67 68.67 0 0 0 11.307.421 71.16 71.16 0 0 0 17.646-3.091 70.174 70.174 0 0 0 16.322-7.362 67.72 67.72 0 0 0 13.003-10.428 69.02 69.02 0 0 0 4.811-5.497c1.384-1.78 2.55-3.44 3.477-4.932.926-1.492 1.635-2.718 2.093-3.609.24-.433.409-.817.517-1.058l.18-.373zm-85.642-66.06c-.433-1.697-.854-3.296-.986-4.018l-18.981 3.488c.252 1.384.685 3.043 1.275 5.329 2.814 10.898 9.298 36.013 1.48 58.23a69.97 69.97 0 0 1 16.165 11.595c12.787-28.928 4.511-61.032.999-74.625zM180.179 476h122.618a159.112 159.112 0 0 0 159.112-159.112v-29.41H21.103V316.9A159.112 159.112 0 0 0 180.179 476zm245.163-221.059a93.545 93.545 0 0 0-26.03-64.845 50.4 50.4 0 1 0-94.05-25.26 93.822 93.822 0 0 0-66.745 103.445h185.839a94.604 94.604 0 0 0 .986-13.34zm-244.718 6.748a42.412 42.412 0 0 1 10.609-28.074 23.383 23.383 0 0 0-43.555 6.014 42.81 42.81 0 0 1 23.492 28.28 23.287 23.287 0 0 0 9.622-2.407 43.845 43.845 0 0 1-.168-3.813zm-79.388-14.963a23.383 23.383 0 0 0-41.522 21.495h28.688a42.665 42.665 0 0 1 12.822-21.495zm79.845-66.686a23.371 23.371 0 0 0-43.543 5.642 42.905 42.905 0 0 1 19.51 18.427 42.292 42.292 0 0 1 11.44-2.153 42.653 42.653 0 0 1 12.58-21.916zm29 7.819a23.383 23.383 0 0 0-22.685 17.537 42.905 42.905 0 0 1 19.534 16.924 42.316 42.316 0 0 1 16.335-3.271h.854a111.36 111.36 0 0 1 7.373-17.177 23.383 23.383 0 0 0-21.41-14.013zm-69.524 26.402a23.36 23.36 0 0 0-43.483 4.174 42.905 42.905 0 0 1 20.966 18.945 42.557 42.557 0 0 1 10.826-1.648 42.593 42.593 0 0 1 11.691-21.47z"></path>
</symbol>

<symbol id="sword" stroke="currentColor" fill="none" stroke-width="2" viewBox="0 0 24 24" 
stroke-linecap="round" stroke-linejoin="round"  xmlns="http://www.w3.org/2000/svg">
<polyline points="14.5 17.5 3 6 3 3 6 3 17.5 14.5"></polyline><line x1="13" x2="19" y1="19" y2="13"></line><line x1="16" x2="20" y1="16" y2="20"></line><line x1="19" x2="21" y1="21" y2="19"></line>
</symbol>

<symbol id="pizza" stroke="currentColor" fill="currentColor" stroke-width="0" viewBox="0 0 512 512" 
xmlns="http://www.w3.org/2000/svg"><path d="M255.5 16a239.9 239.9 0 0 0-128.6 37.69l9.1 13.17C171.9 44.09 213.5 32 256 32c27.3 0 54.4 4.98 79.9 14.72l6.3-14.71A239.985 239.985 0 0 0 256 16zm103.3 23.12l-6.3 14.71c54.3 25.91 95.9 72.57 115.4 129.47l15.3-4.6c-14.4-65.2-56-117.4-124.4-139.58zM255.4 51c-38.4.11-76.1 11.02-108.6 31.49L254.1 237.5c31.2-55.8 54.7-114 74.3-173.3C305.3 55.47 280.7 51 256 51zm29.4 8.93l19.1 23.86-14 11.25-19.1-23.87zm-172.7 4C37.18 104.2 20.64 165.2 17.2 232l15.98 1c6.39-61.9 38.28-118.4 88.02-155.91zM222.2 71c8.2 0 15.8 2.12 21.9 6.2 6.1 4.07 11 10.75 11 18.8 0 8.1-4.9 14.7-11 18.8-6.1 4.1-13.7 6.2-21.9 6.2s-15.8-2.1-21.9-6.2c-6.1-4.1-11-10.7-11-18.8 0-8.05 4.9-14.73 11-18.8 6.1-4.08 13.7-6.2 21.9-6.2zm122.8.31c-18.3 59.29-41.7 116.49-73.1 170.49l68.3-20.4c-3.2-4.9-5-10.9-5-17.2 0-15 10.5-28.8 25.4-28.8 14.9 0 25.4 13.8 25.4 28.8 0 1.2-.1 2.4-.2 3.7l63.9-19.1C431.8 137.3 394.1 94.98 345 71.31zM222.2 89c-5 0-9.3 1.44-11.9 3.16-2.6 1.71-3 3.05-3 3.84s.4 2.13 3 3.84c2.6 1.76 6.9 3.16 11.9 3.16s9.3-1.4 11.9-3.16c2.6-1.71 3-3.05 3-3.84s-.4-2.13-3-3.84c-2.6-1.72-6.9-3.16-11.9-3.16zM132 92.72C87.04 126.9 58.15 178.1 52.16 234.2c62.64.6 125.14 1.8 185.94 11.6L219 218.2l-18.5 10.1-8.6-15.8 16.8-9.2-57-82.1-23.1 18.3-11.2-14.2 24-19zm233.6 13.78l12.2 20.1-15.4 9.4-12.2-20.1zm-106.5 23.1l7.8 16.2-30.2 14.3-7.8-16.2zM123.4 151c17 0 29.6 15.6 29.6 33s-12.6 33-29.6 33-29.6-15.6-29.6-33 12.6-33 29.6-33zm298 9.3l3.7 27.6-17.8 2.4-3.7-27.6zm-298 8.7c-5.7 0-11.6 5.9-11.6 15s5.9 15 11.6 15c5.7 0 11.6-5.9 11.6-15s-5.9-15-11.6-15zm237.2 24.4c-3.2 0-7.4 3.9-7.4 10.8s4.2 10.8 7.4 10.8 7.4-3.9 7.4-10.8-4.2-10.8-7.4-10.8zm127.8 2.6l-15.4 4.5c4.6 18.1 7 36.8 7 55.5 0 47.1-14.8 93-42.4 131.2l12.6 9.9C480 356.1 496 306.7 496 256c0-20.2-2.5-40.4-7.6-60zm-33.6 10l-124 37.1 10 7.1-10.4 14.6-21.4-15.2-33.8 10.1c45.1 42.9 97.7 77.7 147.4 115.7C446.4 340.6 454 298.8 461 256c2.7-16.7-2.1-33.7-6.2-50zM16.07 250c-.1 2 0 4-.1 6-5.08 70.3 9.06 138.7 82.57 181.2l10.06-12.5C59.92 382.2 31.99 320.7 32 256v-5zm34.97 2.2v3.8c0 22 3.52 43.8 10.45 64.7l10.99-23.5 16.3 7.6-18.13 38.8c11.94 25.3 28.91 47.8 49.85 66.3l117.5-146-129.1-8.1-24.6 24.5-12.72-12.8 13.22-13.2zm367.56 13.1c2.3-.1 4.6.2 6.9 1 7.2 2.2 12.3 8.1 14.7 14.8 2.4 6.5 2.4 13.9.1 21.2-2.2 7.2-6.6 13.3-12.2 17.4-5.8 3.9-13.3 5.9-20.6 3.6-2.6-.8-4.9-2.1-6.9-3.7l-7.8 8.9-27.6-23.8 11.8-13.6 14.5 12.5c-1-5.3-.6-10.9 1.1-16.3 2.3-7.3 6.6-13.3 12.3-17.3 4-2.8 8.8-4.6 13.7-4.7zm-261.1 5.5l29.7 11.2-6.4 16.8-29.7-11.2zm108.7 4.6l5.3 84.6c4.8 1 9.2 2.6 13.1 4.9 6.7 3.9 12.4 10.6 12.4 19.1 0 8.5-5.7 15.2-12.4 19.1-3.1 1.8-6.5 3.2-10.1 4.2l3.3 52.5c11.1-1.2 22-3.3 32.7-6.2l3.5-29.1 17.8 2.2-2.5 20.7c31.8-12.1 60-32 82.2-57.8-20.7-16.3-45.4-27.9-62.2-48.9l-7.2 20.1-17-6 9.2-25.9c-28.2-14-45.8-35.4-68.1-53.5zm-17.7 4.3l-114 141.4C169.7 447 212.3 461 256 461h3.8l-3.3-52.2c-7.2-.5-13.8-2.4-19.3-5.7-6.7-3.9-12.4-10.6-12.4-19.1 0-8.5 5.7-15.2 12.4-19.1 4.7-2.8 10.3-4.6 16.3-5.4zm170.6 3.6c-1-.1-2.2.3-3.8 1.3-2.1 1.5-4.3 4.4-5.5 8.1-1.1 3.7-.9 7.3-.1 9.7.9 2.4 2.1 3.4 3.2 3.7 1.2.4 2.7.2 4.8-1.2 2-1.4 4.3-4.3 5.5-8 1.1-3.7.9-7.4.1-9.7-.9-2.4-2.1-3.4-3.2-3.8-.3-.1-.6-.1-1-.1zm-293.3 29.9c4.3.1 8.6 1.1 12.6 3 14.3 6.9 21.3 24.1 14.4 38.4-6.9 14.4-24.7 19.7-39 12.8-14.32-6.9-21.26-24-14.38-38.4 4.98-10.3 15.48-15.9 26.38-15.8zm-.9 17.9c-4 .1-7.6 2.2-9.3 5.7-2.4 5.1-.1 11.5 6 14.4 6.1 2.9 12.5.7 15-4.4 2.4-5 .1-11.4-6-14.3-1.9-1-3.9-1.4-5.7-1.4zm136 45.9c-6 0-11.4 1.6-14.6 3.4-3.2 1.9-3.5 3.3-3.5 3.6 0 .3.3 1.7 3.5 3.6 3.2 1.8 8.6 3.4 14.6 3.4s11.4-1.6 14.6-3.4c3.2-1.9 3.5-3.3 3.5-3.6 0-.3-.3-1.7-3.5-3.6-3.2-1.8-8.6-3.4-14.6-3.4zm165.5 24.4c-37.4 43.8-90.1 71.5-147.4 77.4l1 16c64 3.3 124.6-11.3 159-83.5zm-245.9 3l28.1 2.6-1.6 18-28.1-2.6zm-57.9 31.5l-10 12.5c36.1 45 90.2 51.7 143.4 47.6 2-.2 4 0 6-.1l-1-16c-1.7.1-3.3.1-5 .1-48 0-94.8-15.5-133.4-44.1z"></path>
</symbol>

<symbol id="book" stroke="currentColor" fill="currentColor" stroke-width="0" viewBox="0 0 512 512" xmlns="http://www.w3.org/2000/svg">
<path d="M101.1 24.88L135.5 157l88.1 4.8-3-17.2-1.9-11.2 123.3 7.4 4.9 27.8 75.9 4.2-32.5-124.62-289.2-23.3zm-18.82 1.6c-30.5 11.9-55.7 53.1-49.8 75.32l3.3 11.8c.6-1.8 1.3-3.5 2.1-5.3 9.9-23.72 26.5-46.82 50.3-58.92l-5.9-22.9zm10.8 41.6c-16.7 10-29.9 28.1-38 47.42-5.2 12.5-8 25.6-8.7 36.5l17.46 63.5c12.8-21.2 30.19-42.3 53.96-52.4L93.08 68.08zM240.3 152.8l20.2 117.4 87 4.3L326.8 158l-86.5-5.2zm46.8 21.2a25.29 20.33 24.87 0 1 2.4 0 25.29 20.33 24.87 0 1 27.2 22.4 25.29 20.33 24.87 0 1-13.2 19.2l20.8 37.5-48.7-2.2 10.9-36.1a25.29 20.33 24.87 0 1-18.5-20.6 25.29 20.33 24.87 0 1 19.1-20.2zm-146.8 1.3l15 57.6 81.2 3.4-9.8-56.2-86.4-4.8zm-17.9 5.6c-21.8 10.6-39.52 36.3-51.73 59.4l12.46 45.3c10.27-15.7 23.97-32.8 53.57-49.9l-14.3-54.8zm227.8 5.9l9.7 54.7 81.7 3.5-14.1-53.9-77.3-4.3zM160 251.1l31.2 119.6 289.2 23.2-34-130.6-83.3-3.5 6 33.9-123.8-6.3-5.7-32.9-79.6-3.4zm-18.6 2.7c-32 19.4-39.7 35.9-51.79 55.4l21.49 78.1c.3-.5.6-1.1.9-1.6 10.6-19.3 27.8-37.7 51.1-48.5l-21.7-83.4zM168 355.7c-17.7 9.1-31.2 23.7-39.6 39-4.5 8.1-7.3 16.3-8.7 23.7l11.7 42.4 1.6.2c-3.8-27.6 11.4-60.5 41.3-81.1l-6.3-24.2zm26.3 34c-32.6 17.3-46.5 52.4-41.8 72.9l289.8 24.5c-5.3-7.8-8.7-17.9-8.6-28.5l-22.4-9 46.3-7.3-13.5-12.8c5.6-7 13.7-13.1 24.9-17.7l-274.7-22.1z"></path>
</symbol>

<symbol id="meds" stroke="currentColor" fill="currentColor" stroke-width="0" viewBox="0 0 512 512" 
xmlns="http://www.w3.org/2000/svg"><path d="M211.1 33c-25.9 0-49.4 2.68-65.7 6.76-8.2 2.04-14.6 4.51-18.2 6.65-1.3.78-1.7 1.18-2.1 1.59.4.41.8.81 2.1 1.59 3.6 2.14 10 4.61 18.2 6.65 16.3 4.08 39.8 6.76 65.7 6.76 25.9 0 49.4-2.68 65.7-6.76 8.2-2.04 14.6-4.51 18.2-6.65 1.3-.78 1.7-1.18 2.1-1.59-.4-.41-.8-.81-2.1-1.59-3.6-2.14-10-4.61-18.2-6.65C260.5 35.68 237 33 211.1 33zm-87 35.13v40.07c6.5 3.3 15 6.6 21.3 8.2 16.3 4.1 39.8 6.8 65.7 6.8 25.9 0 49.4-2.7 65.7-6.8 12-2.9 13.4-3.2 21.3-8.2V68.13c-4.9 2.16-10.5 3.97-16.9 5.57-18.5 4.61-43 7.3-70.1 7.3-27.1 0-51.6-2.69-70.1-7.3-6.4-1.6-12-3.41-16.9-5.57zm8.6 63.47c-8.3 2.9-16.5 8.1-23.2 14.8C98.88 156.9 92.1 171 92.1 184v64c0 5 2.2 9.3 7.86 14.2 5.64 4.8 14.74 9.5 25.94 13.3 22.6 7.5 53.9 11.5 85.2 11.5 31.2 0 62.6-4 85.2-11.5 11.2-3.8 20.3-8.5 25.9-13.3 5.7-4.9 7.9-9.2 7.9-14.2v-64c0-13-6.8-27.1-17.4-37.6-6.7-6.7-14.8-11.9-23.2-14.8-2.6.8-5.4 1.6-8.3 2.3-18.5 4.6-43 7.3-70.1 7.3-27.1 0-51.6-2.7-70.1-7.3-2.9-.7-5.7-1.5-8.3-2.3zM92.1 278.9V344c0 5 2.2 9.3 7.86 14.2 5.64 4.8 14.74 9.5 25.94 13.3 22.6 7.5 53.9 11.5 85.2 11.5 31.2 0 62.6-4 85.2-11.5 11.2-3.8 20.3-8.5 25.9-13.3 5.7-4.9 7.9-9.2 7.9-14.2v-65.1c-7.8 5.6-17.3 10-28.2 13.6-25.4 8.5-58.1 12.5-90.8 12.5-32.8 0-65.4-4-90.8-12.5-10.9-3.6-20.45-8-28.2-13.6zm0 96V440c0 5 2.2 9.3 7.86 14.2 5.64 4.8 14.74 9.5 25.94 13.3 22.6 7.5 53.9 11.5 85.2 11.5 17.5 0 35.2-1.3 51.2-3.7-3.2-4.5-5.2-9.6-5.2-15.4 0-11.8 8.3-21.1 18.7-26.9 6.3-3.6 13.8-6.1 22-7.6 2.2-8.9 9.4-16 17.9-20.8 4.3-2.4 9.2-4.4 14.4-5.9v-23.8c-7.8 5.6-17.3 10-28.2 13.6-25.4 8.5-58.1 12.5-90.8 12.5-32.8 0-65.4-4-90.8-12.5-10.9-3.6-20.45-8-28.2-13.6zM354 413.6c-11.9 0-22.6 2.8-29.5 6.7-2.3 1.3-4 2.6-5.4 3.8 12.6.7 24.2 3.8 33.3 8.9 6.2 3.5 11.7 8.2 15 13.9 3-7.5 9.4-13.6 17-17.8 2-1.1 4.1-2.1 6.3-3.1-1.5-1.8-3.8-3.8-7.2-5.7-6.9-3.9-17.6-6.7-29.5-6.7zm68.7 24.5c-11.9 0-22.6 2.8-29.5 6.7-7 3.9-9.5 8.1-9.5 11.2 0 3.1 2.5 7.3 9.5 11.2 6.9 3.9 17.6 6.7 29.5 6.7 11.9 0 22.6-2.8 29.5-6.7 7-3.9 9.5-8.1 9.5-11.2 0-3.1-2.5-7.3-9.5-11.2-6.9-3.9-17.6-6.7-29.5-6.7zM314.1 442c-11.9 0-22.6 2.8-29.5 6.7-7 3.9-9.5 8.1-9.5 11.2 0 3.1 2.5 7.3 9.5 11.2 6.9 3.9 17.6 6.7 29.5 6.7 11.9 0 22.6-2.8 29.5-6.7 7-3.9 9.5-8.1 9.5-11.2 0-3.1-2.5-7.3-9.5-11.2-6.9-3.9-17.6-6.7-29.5-6.7z"></path>
</symbol>

<symbol id="magnifier" viewBox="0 0 512 512" xmlns="http://www.w3.org/2000/svg" style="display: block;">
  <path fill="currentColor" d="M172.6 102.4a77.4 77.4 0 0 0-77.4 77.4c0 6 4.8 10.7 10.7 10.7 6 0 10.7-4.8 10.7-10.7 0-30.9 25.1-56 55.9-56 6 0 10.7-4.8 10.7-10.7 0-5.9-4.8-10.7-10.7-10.7z"/>
  <path fill="currentColor" d="M361.7 301.5c19.4-30.4 30.6-66.5 30.6-105.2C392.3 88 304.3 0 196.15 0a195 195 0 0 0-105.18 30.66C66.73 46.12 46.11 66.76 30.66 91.01 11.26 121.44 0 157.57 0 196.27 0 304.48 88 392.53 196.15 392.53c38.68 0 74.78-11.26 105.2-30.68 25.23-13.44 45.85-34.08 61.3-58.34zM259.76 320.24c-19.07 9.84-40.7 15.4-63.6 15.4-76.8 0-139.3-62.53-139.3-139.38 0-22.91 5.56-44.56 15.4-63.64 13.32-25.86 34.48-47.02 60.32-60.33 19.08-9.84 40.7-15.4 63.58-15.4 76.8 0 139.3 62.52 139.3 139.38 0 22.9-5.56 44.53-15.4 63.62-13.32 25.86-34.48 47.03-60.32 60.35z"/>
  <path fill="currentColor" d="M499.5 439.15 386.28 326.13c-16.12 23.55-36.77 44.2-60.31 60.34l113.24 113.02c8.33 8.34 19.25 12.5 30.15 12.5 10.92 0 21.83-4.17 30.16-12.5 16.65-16.67 16.65-43.68 0-60.34z"/>
</symbol>

<symbol id="unknown"  viewBox="0 0 64 64" xmlns="http://www.w3.org/2000/svg">
  <g fill-rule="nonzero" >
    <path d="M30.249 2.065C18.612 2.789 12.531 9.379 12 21.296h11.739c.147-4.128 2.451-7.214 6.741-7.669c4.211-.447 8.206.556 9.416 3.435c1.307 3.11-1.627 6.724-3.022 8.241c-2.582 2.813-6.776 4.865-8.95 7.9c-2.131 2.974-2.51 6.887-2.674 11.676h10.346c.145-3.062.349-5.995 1.742-7.898c2.266-3.092 5.65-4.541 8.486-6.983c2.709-2.334 5.559-5.147 6.043-9.501C53.32 7.466 42.683 1.289 30.249 2.065"/>
    <ellipse cx="30.515" cy="55.567" rx="6.532" ry="6.433"/>
  </g>
</symbol>

<symbol  id="trashcan" fill="currentColor" viewBox="0 0 591.6 591.6" xmlns="http://www.w3.org/2000/svg">
  <path d="M540.6 71.4h-91.8v-51c0-5.712-4.488-10.2-10.2-10.2H153c-5.712 0-10.2 4.488-10.2 10.2v51H51c-28.152 0-51 22.848-51 51s22.848 51 51 51h11.22L102 531.624C105.264 561 126.276 581.4 153 581.4h285.6c26.724 0 47.736-20.604 51-49.776L529.38 173.4h11.22c28.152 0 51-22.848 51-51s-22.848-51-51-51M163.2 30.6h265.2v40.8H163.2zm306 498.576c-1.632 15.3-12.036 31.824-30.6 31.824H153c-18.564 0-28.968-16.524-30.6-31.824L82.824 173.4h425.952zM540.6 153H51c-16.932 0-30.6-13.668-30.6-30.6S34.068 91.8 51 91.8h489.6c16.932 0 30.6 13.668 30.6 30.6S557.532 153 540.6 153"/>
  <path d="M193.8 535.5c2.856 0 5.1-2.244 5.1-5.1v-306c0-2.856-2.244-5.1-5.1-5.1s-5.1 2.244-5.1 5.1v306c0 2.856 2.244 5.1 5.1 5.1m204 0c2.856 0 5.1-2.244 5.1-5.1v-306c0-2.856-2.244-5.1-5.1-5.1s-5.1 2.244-5.1 5.1v306c0 2.856 2.244 5.1 5.1 5.1m-102 0c2.856 0 5.1-2.244 5.1-5.1v-306c0-2.856-2.244-5.1-5.1-5.1s-5.1 2.244-5.1 5.1v306c0 2.856 2.244 5.1 5.1 5.1"/></symbol>
  </symbol>
</svg>